<svg width="120" height="12" viewBox="0 0 120 12" fill="none" xmlns="http://www.w3.org/2000/svg">
<path d="M9.99263 4.38281H7.81507C7.7753 4.10109 7.6941 3.85085 7.57147 3.6321C7.44883 3.41004 7.2914 3.22112 7.09917 3.06534C6.90693 2.90956 6.68487 2.79025 6.43297 2.70739C6.18439 2.62453 5.91427 2.5831 5.6226 2.5831C5.09561 2.5831 4.63657 2.71402 4.24547 2.97585C3.85437 3.23437 3.55111 3.61222 3.33567 4.10938C3.12024 4.60322 3.01252 5.20312 3.01252 5.90909C3.01252 6.63494 3.12024 7.24479 3.33567 7.73864C3.55442 8.23248 3.85935 8.60535 4.25044 8.85724C4.64154 9.10914 5.09396 9.23509 5.60769 9.23509C5.89604 9.23509 6.16285 9.19697 6.40811 9.12074C6.65669 9.04451 6.8771 8.93348 7.06934 8.78764C7.26157 8.63849 7.42066 8.45786 7.54661 8.24574C7.67587 8.03362 7.76536 7.79167 7.81507 7.51989L9.99263 7.52983C9.93629 7.99716 9.79543 8.44792 9.57005 8.8821C9.34798 9.31297 9.04803 9.6991 8.67019 10.0405C8.29566 10.3786 7.84822 10.647 7.32786 10.8459C6.81081 11.0414 6.22582 11.1392 5.57289 11.1392C4.66474 11.1392 3.85272 10.9337 3.13681 10.5227C2.42421 10.1117 1.86077 9.51681 1.44647 8.73793C1.03548 7.95904 0.829989 7.0161 0.829989 5.90909C0.829989 4.79877 1.0388 3.85417 1.45641 3.07528C1.87402 2.2964 2.44078 1.70312 3.15669 1.29545C3.8726 0.884469 4.678 0.678977 5.57289 0.678977C6.16285 0.678977 6.70972 0.761837 7.21351 0.927557C7.72061 1.09328 8.16971 1.33523 8.56081 1.65341C8.95191 1.96828 9.27009 2.3544 9.51536 2.81179C9.76394 3.26918 9.92303 3.79285 9.99263 4.38281ZM20.8928 5.90909C20.8928 7.01941 20.6824 7.96402 20.2615 8.7429C19.8438 9.52178 19.2738 10.1167 18.5512 10.5277C17.832 10.9354 17.0233 11.1392 16.1251 11.1392C15.2203 11.1392 14.4082 10.9337 13.689 10.5227C12.9698 10.1117 12.4014 9.51681 11.9838 8.73793C11.5661 7.95904 11.3573 7.0161 11.3573 5.90909C11.3573 4.79877 11.5661 3.85417 11.9838 3.07528C12.4014 2.2964 12.9698 1.70312 13.689 1.29545C14.4082 0.884469 15.2203 0.678977 16.1251 0.678977C17.0233 0.678977 17.832 0.884469 18.5512 1.29545C19.2738 1.70312 19.8438 2.2964 20.2615 3.07528C20.6824 3.85417 20.8928 4.79877 20.8928 5.90909ZM18.7103 5.90909C18.7103 5.18987 18.6026 4.58333 18.3872 4.08949C18.175 3.59564 17.8751 3.22112 17.4873 2.96591C17.0995 2.7107 16.6454 2.5831 16.1251 2.5831C15.6047 2.5831 15.1507 2.7107 14.7629 2.96591C14.3751 3.22112 14.0735 3.59564 13.858 4.08949C13.6459 4.58333 13.5399 5.18987 13.5399 5.90909C13.5399 6.62831 13.6459 7.23485 13.858 7.72869C14.0735 8.22254 14.3751 8.59706 14.7629 8.85227C15.1507 9.10748 15.6047 9.23509 16.1251 9.23509C16.6454 9.23509 17.0995 9.10748 17.4873 8.85227C17.8751 8.59706 18.175 8.22254 18.3872 7.72869C18.6026 7.23485 18.7103 6.62831 18.7103 5.90909ZM31.0038 0.818182V11H29.1444L24.7148 4.59162H24.6402V11H22.4875V0.818182H24.3767L28.7716 7.22159H28.8611V0.818182H31.0038ZM32.7824 11V0.818182H39.5239V2.59304H34.9351V5.01918H39.0764V6.79403H34.9351V11H32.7824ZM40.9719 11V0.818182H47.8327V2.59304H43.1246V5.01918H47.4797V6.79403H43.1246V9.22514H47.8525V11H40.9719ZM49.5441 11V0.818182H53.5612C54.3301 0.818182 54.9864 0.955729 55.5299 1.23082C56.0768 1.5026 56.4927 1.88873 56.7778 2.3892C57.0661 2.88636 57.2103 3.47135 57.2103 4.14418C57.2103 4.82031 57.0645 5.40199 56.7728 5.8892C56.4811 6.37311 56.0586 6.74432 55.5051 7.00284C54.9549 7.26136 54.2887 7.39062 53.5065 7.39062H50.8169V5.66051H53.1585C53.5695 5.66051 53.9108 5.60417 54.1826 5.49148C54.4544 5.37879 54.6566 5.20975 54.7892 4.98438C54.925 4.759 54.993 4.47893 54.993 4.14418C54.993 3.80611 54.925 3.52107 54.7892 3.28906C54.6566 3.05705 54.4527 2.88139 54.1776 2.76207C53.9059 2.63944 53.5628 2.57812 53.1485 2.57812H51.6968V11H49.5441ZM55.0427 6.36648L57.5732 11H55.1968L52.721 6.36648H55.0427ZM60.8843 0.818182V11H58.7316V0.818182H60.8843ZM62.6555 11V0.818182H66.6725C67.4414 0.818182 68.0977 0.955729 68.6412 1.23082C69.1881 1.5026 69.6041 1.88873 69.8891 2.3892C70.1775 2.88636 70.3216 3.47135 70.3216 4.14418C70.3216 4.82031 70.1758 5.40199 69.8841 5.8892C69.5925 6.37311 69.1699 6.74432 68.6164 7.00284C68.0662 7.26136 67.4 7.39062 66.6178 7.39062H63.9282V5.66051H66.2698C66.6808 5.66051 67.0222 5.60417 67.2939 5.49148C67.5657 5.37879 67.7679 5.20975 67.9005 4.98438C68.0364 4.759 68.1043 4.47893 68.1043 4.14418C68.1043 3.80611 68.0364 3.52107 67.9005 3.28906C67.7679 3.05705 67.5641 2.88139 67.289 2.76207C67.0172 2.63944 66.6742 2.57812 66.2599 2.57812H64.8081V11H62.6555ZM68.154 6.36648L70.6846 11H68.3081L65.8323 6.36648H68.154ZM84.0669 4.38281H81.8893C81.8495 4.10109 81.7683 3.85085 81.6457 3.6321C81.5231 3.41004 81.3656 3.22112 81.1734 3.06534C80.9811 2.90956 80.7591 2.79025 80.5072 2.70739C80.2586 2.62453 79.9885 2.5831 79.6968 2.5831C79.1698 2.5831 78.7108 2.71402 78.3197 2.97585C77.9286 3.23437 77.6253 3.61222 77.4099 4.10938C77.1945 4.60322 77.0867 5.20312 77.0867 5.90909C77.0867 6.63494 77.1945 7.24479 77.4099 7.73864C77.6286 8.23248 77.9336 8.60535 78.3247 8.85724C78.7158 9.10914 79.1682 9.23509 79.6819 9.23509C79.9703 9.23509 80.2371 9.19697 80.4823 9.12074C80.7309 9.04451 80.9513 8.93348 81.1436 8.78764C81.3358 8.63849 81.4949 8.45786 81.6208 8.24574C81.7501 8.03362 81.8396 7.79167 81.8893 7.51989L84.0669 7.52983C84.0105 7.99716 83.8696 8.44792 83.6443 8.8821C83.4222 9.31297 83.1222 9.6991 82.7444 10.0405C82.3699 10.3786 81.9224 10.647 81.4021 10.8459C80.885 11.0414 80.3 11.1392 79.6471 11.1392C78.739 11.1392 77.9269 10.9337 77.211 10.5227C76.4984 10.1117 75.935 9.51681 75.5207 8.73793C75.1097 7.95904 74.9042 7.0161 74.9042 5.90909C74.9042 4.79877 75.113 3.85417 75.5306 3.07528C75.9482 2.2964 76.515 1.70312 77.2309 1.29545C77.9468 0.884469 78.7522 0.678977 79.6471 0.678977C80.2371 0.678977 80.7839 0.761837 81.2877 0.927557C81.7948 1.09328 82.2439 1.33523 82.635 1.65341C83.0261 1.96828 83.3443 2.3544 83.5896 2.81179C83.8382 3.26918 83.9972 3.79285 84.0669 4.38281ZM85.6105 11V0.818182H87.7632V9.22514H92.1283V11H85.6105ZM95.7066 0.818182V11H93.5539V0.818182H95.7066ZM97.4777 0.818182H100.133L102.937 7.65909H103.056L105.86 0.818182H108.515V11H106.427V4.37287H106.342L103.707 10.9503H102.285L99.6503 4.34801H99.5658V11H97.4777V0.818182ZM112.043 11H109.736L113.251 0.818182H116.025L119.535 11H117.229L114.678 3.14489H114.599L112.043 11ZM111.899 6.99787H117.348V8.67827H111.899V6.99787Z" fill="#FAFAFA"/>
</svg>
